<svg xmlns="http://www.w3.org/2000/svg" width="200" height="200" viewBox="0 0 200 200" version="1.1"><path d="" stroke="none" fill="#080404" fill-rule="evenodd"/><path d="M 81.340 22.936 C 76.197 24.197, 71.725 27.315, 68.514 31.881 C 65.669 35.925, 65.472 36.833, 65 48.066 L 64.500 59.966 52.500 65.879 C 34.704 74.649, 23.460 84.333, 21.360 92.702 C 19.446 100.329, 26.234 109.317, 38.814 115.812 C 52.725 122.995, 67.304 127.341, 95.250 132.637 L 110 135.433 110 143.216 C 110 149.314, 110.311 151, 111.436 151 C 112.898 151, 121.685 145.110, 146.250 127.662 C 155.628 121.001, 160 117.295, 160 116.005 C 160 114.240, 152.942 109.055, 118.739 85.690 C 114.885 83.058, 111.337 81.317, 110.489 81.643 C 109.316 82.093, 109 84.216, 109 91.644 L 109 101.074 95.750 100.445 C 66.786 99.073, 49.992 96.083, 45.390 91.481 C 42.765 88.856, 42.996 86.951, 46.399 83.158 C 48.621 80.682, 58.268 74.685, 61.866 73.543 C 63.893 72.899, 64 73.186, 64 79.290 L 64 85.715 70.147 86.358 C 81.151 87.508, 80 89.948, 80 65.455 C 80 43.912, 80 43.909, 82.455 41.455 L 84.909 39 121.955 39 C 157.667 39, 159.072 39.072, 161 41 C 162.953 42.953, 163 44.333, 163 100.345 C 163 154.630, 162.902 157.778, 161.171 159.345 C 159.537 160.824, 155.295 161, 121.294 161 C 87.177 161, 83.103 160.830, 81.872 159.352 C 81.055 158.371, 80.298 154.249, 80 149.162 L 79.500 140.620 71.750 138.929 L 64 137.237 64.022 148.869 C 64.048 162.445, 65.359 166.401, 71.742 172.156 C 78.087 177.876, 81.159 178.203, 125 177.829 L 163.500 177.500 168.272 174.695 C 170.897 173.152, 174.272 170.035, 175.772 167.768 L 178.500 163.646 178.500 99.909 L 178.500 36.172 175.456 31.836 C 173.781 29.451, 170.406 26.375, 167.956 25 L 163.500 22.500 124 22.331 C 102.275 22.238, 83.078 22.510, 81.340 22.936" stroke="none" fill="#040404" fill-rule="evenodd"/></svg>